<svg width="16" height="32" viewBox="0 0 16 32" fill="none" xmlns="http://www.w3.org/2000/svg">
<path fill-rule="evenodd" clip-rule="evenodd" d="M0.335671 1.1743C0.441805 1.06565 0.567889 0.979448 0.706699 0.920633C0.84551 0.861818 0.994321 0.831543 1.14461 0.831543C1.29489 0.831543 1.4437 0.861818 1.58252 0.920633C1.72133 0.979448 1.84741 1.06565 1.95354 1.1743L15.6643 15.1743C15.7707 15.2827 15.8552 15.4114 15.9128 15.5532C15.9704 15.6949 16 15.8468 16 16.0003C16 16.1538 15.9704 16.3057 15.9128 16.4474C15.8552 16.5892 15.7707 16.7179 15.6643 16.8263L1.95354 30.8263C1.739 31.0454 1.44802 31.1684 1.14461 31.1684C0.841197 31.1684 0.550214 31.0454 0.335671 30.8263C0.121128 30.6072 0.00059821 30.3101 0.00059821 30.0003C0.00059821 29.6905 0.121128 29.3934 0.335671 29.1743L13.2398 16.0003L0.335671 2.8263C0.229268 2.71792 0.144848 2.58918 0.0872482 2.44744C0.0296482 2.3057 0 2.15375 0 2.0003C0 1.84684 0.0296482 1.69489 0.0872482 1.55315C0.144848 1.41141 0.229268 1.28267 0.335671 1.1743Z" fill="#EAE7EF"/>
</svg>
