<svg width="24" height="24" viewBox="0 0 24 24" fill="none" xmlns="http://www.w3.org/2000/svg">
<path d="M13.2336 0C14.5835 0.00359992 15.2687 0.0107997 15.8603 0.0275994L16.0931 0.0359991C16.3619 0.0455989 16.627 0.0575986 16.9474 0.0719982C18.2242 0.131997 19.0953 0.333592 19.8597 0.629985C20.6516 0.934778 21.3188 1.34757 21.986 2.01355C22.5961 2.61341 23.0683 3.33903 23.3695 4.1399C23.6659 4.90428 23.8675 5.77546 23.9275 7.05343C23.9419 7.37263 23.9539 7.63782 23.9635 7.90781L23.9707 8.14061C23.9887 8.731 23.9959 9.41618 23.9983 10.7661L23.9995 11.6613V13.2333C24.0024 14.1086 23.9932 14.9838 23.9719 15.8588L23.9647 16.0916C23.9551 16.3616 23.9431 16.6268 23.9287 16.946C23.8687 18.224 23.6647 19.094 23.3695 19.8595C23.0691 20.6608 22.5969 21.3866 21.986 21.9859C21.386 22.5959 20.6604 23.068 19.8597 23.3695C19.0953 23.6658 18.2242 23.8674 16.9474 23.9274C16.6627 23.9408 16.3779 23.9528 16.0931 23.9634L15.8603 23.9706C15.2687 23.9874 14.5835 23.9958 13.2336 23.9982L12.3385 23.9994H10.7677C9.8921 24.0025 9.01646 23.9933 8.14108 23.9718L7.90829 23.9646C7.62343 23.9538 7.33864 23.9415 7.05393 23.9274C5.7772 23.8674 4.90604 23.6658 4.14048 23.3695C3.33972 23.0687 2.61442 22.5965 2.01539 21.9859C1.40467 21.3862 0.932114 20.6606 0.63066 19.8595C0.334275 19.0952 0.132686 18.224 0.0726886 16.946C0.0593199 16.6613 0.0473204 16.3765 0.0366905 16.0916L0.0306909 15.8588C0.00857853 14.9838 -0.00142203 14.1086 0.000692365 13.2333V10.7661C-0.00265662 9.89089 0.00614386 9.01562 0.0270911 8.14061L0.0354906 7.90781C0.0450901 7.63782 0.0570895 7.37263 0.0714888 7.05343C0.131486 5.77546 0.333075 4.90549 0.62946 4.1399C0.930781 3.33821 1.40428 2.61237 2.01659 2.01355C2.61547 1.40334 3.34029 0.931163 4.14048 0.629985C4.90604 0.333592 5.776 0.131997 7.05393 0.0719982C7.37311 0.0575986 7.6395 0.0455989 7.90829 0.0359991L8.14108 0.0287992C9.01606 0.00747907 9.8913 -0.0017216 10.7665 0.00119988L13.2336 0ZM12.0001 5.99986C10.4089 5.99986 8.88282 6.63199 7.75765 7.75718C6.63249 8.88237 6.00038 10.4085 6.00038 11.9997C6.00038 13.591 6.63249 15.1171 7.75765 16.2423C8.88282 17.3675 10.4089 17.9996 12.0001 17.9996C13.5913 17.9996 15.1173 17.3675 16.2425 16.2423C17.3677 15.1171 17.9998 13.591 17.9998 11.9997C17.9998 10.4085 17.3677 8.88237 16.2425 7.75718C15.1173 6.63199 13.5913 5.99986 12.0001 5.99986ZM12.0001 8.3998C12.4728 8.39972 12.9409 8.49276 13.3777 8.6736C13.8145 8.85444 14.2114 9.11954 14.5457 9.45377C14.88 9.788 15.1453 10.1848 15.3262 10.6215C15.5072 11.0583 15.6004 11.5264 15.6005 11.9991C15.6006 12.4719 15.5075 12.94 15.3267 13.3768C15.1459 13.8136 14.8808 14.2105 14.5466 14.5448C14.2123 14.8792 13.8155 15.1444 13.3788 15.3254C12.9421 15.5064 12.474 15.5996 12.0013 15.5996C11.0465 15.5996 10.1309 15.2204 9.45582 14.5452C8.78073 13.8701 8.40146 12.9545 8.40146 11.9997C8.40146 11.045 8.78073 10.1293 9.45582 9.45419C10.1309 8.77908 11.0465 8.3998 12.0013 8.3998M18.301 4.1999C17.9032 4.1999 17.5216 4.35793 17.2403 4.63923C16.9591 4.92053 16.801 5.30205 16.801 5.69987C16.801 6.09768 16.9591 6.4792 17.2403 6.7605C17.5216 7.0418 17.9032 7.19983 18.301 7.19983C18.6988 7.19983 19.0803 7.0418 19.3616 6.7605C19.6429 6.4792 19.8009 6.09768 19.8009 5.69987C19.8009 5.30205 19.6429 4.92053 19.3616 4.63923C19.0803 4.35793 18.6988 4.1999 18.301 4.1999Z" fill="#F0E6F4"/>
</svg>
