<svg width="16" height="17" viewBox="0 0 16 17" fill="none" xmlns="http://www.w3.org/2000/svg">
<path d="M14.7556 16.5L9.15556 10.9C8.71111 11.2556 8.2 11.537 7.62222 11.7444C7.04444 11.9519 6.42963 12.0556 5.77778 12.0556C4.16296 12.0556 2.79644 11.4961 1.67822 10.3773C0.56 9.25852 0.000592593 7.892 0 6.27778C0 4.66296 0.559407 3.29644 1.67822 2.17822C2.79704 1.06 4.16356 0.500593 5.77778 0.5C7.39259 0.5 8.75941 1.05941 9.87822 2.17822C10.997 3.29704 11.5561 4.66356 11.5556 6.27778C11.5556 6.92963 11.4519 7.54444 11.2444 8.12222C11.037 8.7 10.7556 9.21111 10.4 9.65556L16 15.2556L14.7556 16.5ZM5.77778 10.2778C6.88889 10.2778 7.83348 9.88904 8.61156 9.11156C9.38963 8.33407 9.77837 7.38948 9.77778 6.27778C9.77778 5.16667 9.38904 4.22237 8.61156 3.44489C7.83407 2.66741 6.88948 2.27837 5.77778 2.27778C4.66667 2.27778 3.72237 2.66682 2.94489 3.44489C2.16741 4.22296 1.77837 5.16726 1.77778 6.27778C1.77778 7.38889 2.16682 8.33348 2.94489 9.11156C3.72296 9.88963 4.66726 10.2784 5.77778 10.2778Z" fill="white"/>
</svg>
