<svg width="32" height="32" viewBox="0 0 32 32" fill="none" xmlns="http://www.w3.org/2000/svg">
<path d="M17.6448 0C19.4447 0.00479989 20.3583 0.0143997 21.147 0.0367991L21.4574 0.0479988C21.8158 0.0607985 22.1694 0.0767981 22.5966 0.0959977C24.2989 0.175996 25.4604 0.44479 26.4796 0.839981C27.5355 1.24637 28.4251 1.79676 29.3146 2.68474C30.1282 3.48455 30.7577 4.45204 31.1593 5.51987C31.5545 6.53905 31.8233 7.70062 31.9033 9.40458C31.9225 9.83017 31.9385 10.1838 31.9513 10.5438L31.9609 10.8541C31.9849 11.6413 31.9945 12.5549 31.9977 14.3549L31.9993 15.5484V17.6444C32.0032 18.8114 31.9909 19.9784 31.9625 21.1451L31.9529 21.4555C31.9401 21.8155 31.9241 22.1691 31.9049 22.5947C31.8249 24.2986 31.5529 25.4586 31.1593 26.4794C30.7588 27.5478 30.1292 28.5155 29.3146 29.3145C28.5146 30.1278 27.5472 30.7573 26.4796 31.1593C25.4604 31.5545 24.2989 31.8233 22.5966 31.9033C22.2169 31.9211 21.8372 31.9371 21.4574 31.9513L21.147 31.9609C20.3583 31.9833 19.4447 31.9945 17.6448 31.9977L16.4513 31.9993H14.357C13.1895 32.0033 12.0219 31.991 10.8548 31.9625L10.5444 31.9529C10.1646 31.9385 9.78486 31.9219 9.40524 31.9033C7.70293 31.8233 6.54139 31.5545 5.52064 31.1593C4.45297 30.7583 3.48589 30.1287 2.68719 29.3145C1.8729 28.515 1.24282 27.5475 0.84088 26.4794C0.4457 25.4602 0.176914 24.2986 0.0969181 22.5947C0.0790932 22.215 0.0630938 21.8353 0.0489207 21.4555L0.0409213 21.1451C0.011438 19.9784 -0.00189604 18.8114 0.000923154 17.6444V14.3549C-0.00354216 13.1879 0.00819182 12.0208 0.0361215 10.8541L0.0473208 10.5438C0.0601202 10.1838 0.0761193 9.83017 0.0953183 9.40458C0.175314 7.70062 0.4441 6.54065 0.83928 5.51987C1.24104 4.45094 1.87238 3.48316 2.68879 2.68474C3.48729 1.87111 4.45372 1.24155 5.52064 0.839981C6.54139 0.44479 7.70133 0.175996 9.40524 0.0959977C9.83082 0.0767981 10.186 0.0607985 10.5444 0.0479988L10.8548 0.038399C12.0214 0.0099721 13.1884 -0.00229546 14.3554 0.00159985L17.6448 0ZM16.0001 7.99981C13.8785 7.99981 11.8438 8.84265 10.3435 10.3429C8.84332 11.8432 8.00051 13.8779 8.00051 15.9996C8.00051 18.1213 8.84332 20.1561 10.3435 21.6563C11.8438 23.1566 13.8785 23.9994 16.0001 23.9994C18.1217 23.9994 20.1565 23.1566 21.6567 21.6563C23.1569 20.1561 23.9997 18.1213 23.9997 15.9996C23.9997 13.8779 23.1569 11.8432 21.6567 10.3429C20.1565 8.84265 18.1217 7.99981 16.0001 7.99981ZM16.0001 11.1997C16.6304 11.1996 17.2546 11.3237 17.837 11.5648C18.4193 11.8059 18.9485 12.1594 19.3943 12.605C19.84 13.0507 20.1937 13.5797 20.435 14.1621C20.6763 14.7444 20.8006 15.3685 20.8007 15.9988C20.8008 16.6292 20.6767 17.2533 20.4356 17.8357C20.1945 18.4181 19.841 18.9473 19.3954 19.3931C18.9498 19.8389 18.4207 20.1925 17.8384 20.4338C17.2561 20.6752 16.632 20.7994 16.0017 20.7995C14.7287 20.7995 13.5079 20.2938 12.6078 19.3937C11.7076 18.4935 11.202 17.2726 11.202 15.9996C11.202 14.7266 11.7076 13.5057 12.6078 12.6056C13.5079 11.7054 14.7287 11.1997 16.0017 11.1997M24.4013 5.59987C23.8709 5.59987 23.3622 5.81058 22.9871 6.18564C22.6121 6.56071 22.4014 7.0694 22.4014 7.59982C22.4014 8.13024 22.6121 8.63894 22.9871 9.014C23.3622 9.38907 23.8709 9.59978 24.4013 9.59978C24.9317 9.59978 25.4404 9.38907 25.8154 9.014C26.1905 8.63894 26.4012 8.13024 26.4012 7.59982C26.4012 7.0694 26.1905 6.56071 25.8154 6.18564C25.4404 5.81058 24.9317 5.59987 24.4013 5.59987Z" fill="#FDFCFD"/>
</svg>
