<svg width="64" height="64" viewBox="0 0 64 64" fill="none" xmlns="http://www.w3.org/2000/svg">
<path d="M31.9999 37.3333C37.8826 37.3333 42.6666 32.5493 42.6666 26.6667C42.6666 20.784 37.8826 16 31.9999 16C26.1173 16 21.3333 20.784 21.3333 26.6667C21.3333 32.5493 26.1173 37.3333 31.9999 37.3333ZM31.9999 21.3333C34.9413 21.3333 37.3333 23.7253 37.3333 26.6667C37.3333 29.608 34.9413 32 31.9999 32C29.0586 32 26.6666 29.608 26.6666 26.6667C26.6666 23.7253 29.0586 21.3333 31.9999 21.3333Z" fill="#EAE7EF"/>
<path d="M30.4534 58.1706C30.9047 58.4929 31.4455 58.6662 32.0001 58.6662C32.5547 58.6662 33.0954 58.4929 33.5467 58.1706C34.3574 57.5972 53.4107 43.8399 53.3334 26.6666C53.3334 14.9039 43.7627 5.33325 32.0001 5.33325C20.2374 5.33325 10.6667 14.9039 10.6667 26.6532C10.5894 43.8399 29.6427 57.5972 30.4534 58.1706ZM32.0001 10.6666C40.8241 10.6666 48.0001 17.8426 48.0001 26.6799C48.0561 38.5146 36.2987 49.1413 32.0001 52.6266C27.7041 49.1386 15.9441 38.5093 16.0001 26.6666C16.0001 17.8426 23.1761 10.6666 32.0001 10.6666Z" fill="#EAE7EF"/>
</svg>
